<svg t="1596088559340" class="icon" viewBox="0 0 1024 1024" version="1.1" xmlns="http://www.w3.org/2000/svg" p-id="11194" xmlns:xlink="http://www.w3.org/1999/xlink" width="20" height="20"><defs><style type="text/css"></style></defs><path d="M512 950.857143C269.622857 950.857143 73.142857 754.377143 73.142857 512S269.622857 73.142857 512 73.142857s438.857143 196.48 438.857143 438.857143-196.48 438.857143-438.857143 438.857143z m-3.035429-506.148572c36.644571 0 59.904 29.659429 59.904 76.470858 0 46.811429-23.552 76.489143-60.196571 76.489142-35.474286 0-56.996571-29.074286-56.996571-76.489142 0-47.981714 21.522286-76.489143 57.289142-76.489143z m10.185143-167.808c-142.793143 0-242.249143 97.718857-242.249143 242.541715 0 154.130286 103.241143 242.541714 246.893715 242.541714 35.474286 0 68.352-4.662857 93.074285-12.8v-40.137143c-18.029714 7.570286-54.966857 12.507429-91.026285 12.507429-118.070857 0-203.574857-72.118857-203.574857-200.374857 0-119.808 80.841143-204.141714 193.682285-204.141715 113.700571 0 191.36 70.070857 191.36 175.945143 0 70.363429-23.552 110.500571-55.844571 110.500572-20.937143 0-31.104-13.092571-31.104-32.274286v-165.193143h-49.152v35.2h-3.2c-11.062857-25.014857-38.674286-41.014857-69.796572-41.014857-59.044571 0-100.041143 48.859429-100.041142 119.533714 0 73.874286 40.704 123.300571 101.193142 123.300572 34.029714 0 60.214857-16.274286 72.411429-45.659429h2.925714c4.644571 28.8 32.859429 47.689143 66.870857 47.689143 69.229714 0 111.104-60.781714 111.104-153.545143 0-128.548571-97.426286-214.619429-233.526857-214.619429z" p-id="11195" fill="#1296db"></path></svg>